<?xml version="1.0" encoding="iso-8859-1"?>
<!-- Generator: Adobe Illustrator 19.0.0, SVG Export Plug-In . SVG Version: 6.00 Build 0)  -->
<svg version="1.1" id="Layer_1" xmlns="http://www.w3.org/2000/svg" xmlns:xlink="http://www.w3.org/1999/xlink" x="0px" y="0px"
	 viewBox="0 0 512.001 512.001" style="enable-background:new 0 0 512.001 512.001;" xml:space="preserve">
<path style="fill:#F4B2B0;" d="M339.449,318.598c0-43.63,35.368-78.998,78.998-78.998c4.825,0,9.54,0.456,14.127,1.284l1.092-6.183
	H108.257l25.247,142.969H366.02C349.726,363.199,339.449,342.103,339.449,318.598z"/>
<g>
	<path style="fill:#B3404A;" d="M449.227,230.271l14.795-83.781c0.748-4.239-0.416-8.589-3.183-11.886
		c-2.766-3.297-6.849-5.201-11.151-5.201h-71.572c-8.039,0-14.556,6.517-14.556,14.556s6.517,14.556,14.556,14.556h54.221
		l-10.883,61.631H120.468l-10.883-61.631h192.013c8.039,0,14.556-6.517,14.556-14.556s-6.517-14.556-14.556-14.556H104.017
		L86.832,38.148c-1.295-6.879-7.304-11.862-14.304-11.862H14.556C6.517,26.287,0,32.803,0,40.843s6.517,14.556,14.556,14.556h45.901
		l21.787,115.697l11.68,66.136c0,0,0,0.001,0,0.003l25.247,142.969c1.229,6.955,7.272,12.025,14.335,12.025h60.489
		c17.748,0,32.188,14.44,32.188,32.188s-14.44,32.188-32.188,32.188s-32.188-14.44-32.188-32.188
		c0-8.039-6.517-14.556-14.556-14.556c-8.039,0-14.556,6.517-14.556,14.556c0,33.8,27.499,61.299,61.299,61.299
		s61.3-27.499,61.3-61.299c0-11.801-3.36-22.827-9.16-32.188h102.245c17.748,0,32.188,14.44,32.188,32.188
		s-14.44,32.188-32.188,32.188c-17.748,0-32.189-14.44-32.189-32.188c0-8.039-6.517-14.556-14.556-14.556
		s-14.556,6.517-14.556,14.556c0,33.8,27.499,61.299,61.301,61.299c33.8,0,61.3-27.499,61.3-61.299c0-4.397-0.475-8.684-1.36-12.821
		c3.329,0.36,6.706,0.557,10.13,0.557c51.585,0,93.553-41.968,93.553-93.553C512,277.795,485.732,243.031,449.227,230.271z
		 M125.609,249.258h230.098c-0.023,0.022-0.045,0.044-0.068,0.066c-1.143,1.036-2.261,2.102-3.351,3.192
		c-0.265,0.265-0.514,0.544-0.774,0.812c-0.819,0.84-1.635,1.684-2.421,2.553c-0.393,0.434-0.764,0.885-1.148,1.326
		c-0.633,0.726-1.269,1.451-1.881,2.197c-0.408,0.498-0.796,1.013-1.195,1.52c-0.56,0.713-1.122,1.425-1.662,2.154
		c-0.399,0.539-0.779,1.09-1.166,1.638c-0.509,0.721-1.02,1.441-1.509,2.176c-0.38,0.572-0.745,1.154-1.112,1.734
		c-0.466,0.734-0.929,1.469-1.374,2.217c-0.357,0.598-0.7,1.207-1.044,1.814c-0.425,0.751-0.844,1.504-1.249,2.266
		c-0.33,0.623-0.649,1.252-0.965,1.884c-0.386,0.769-0.763,1.54-1.127,2.32c-0.301,0.643-0.592,1.29-0.879,1.942
		c-0.346,0.789-0.683,1.584-1.009,2.384c-0.268,0.659-0.531,1.32-0.785,1.987c-0.309,0.812-0.603,1.633-0.891,2.456
		c-0.234,0.671-0.466,1.341-0.684,2.017c-0.271,0.837-0.523,1.683-0.769,2.53c-0.198,0.68-0.399,1.358-0.582,2.045
		c-0.231,0.866-0.44,1.739-0.646,2.616c-0.162,0.683-0.328,1.361-0.475,2.049c-0.192,0.902-0.355,1.815-0.521,2.728
		c-0.122,0.674-0.255,1.344-0.362,2.023c-0.153,0.961-0.271,1.932-0.394,2.901c-0.082,0.643-0.178,1.281-0.246,1.927
		c-0.114,1.08-0.189,2.172-0.265,3.262c-0.038,0.547-0.096,1.089-0.125,1.639c-0.086,1.645-0.134,3.3-0.134,4.966
		c0,1.413,0.044,2.822,0.108,4.229c0.015,0.338,0.029,0.677,0.048,1.015c0.073,1.287,0.169,2.571,0.294,3.849
		c0.045,0.461,0.1,0.918,0.151,1.377c0.099,0.872,0.21,1.742,0.333,2.61c0.114,0.811,0.239,1.616,0.374,2.419
		c0.128,0.76,0.261,1.52,0.408,2.275c0.143,0.735,0.294,1.467,0.453,2.195c0.092,0.421,0.194,0.838,0.291,1.258
		c0.317,1.362,0.664,2.713,1.041,4.052c0.089,0.314,0.176,0.63,0.269,0.945c0.734,2.508,1.569,4.972,2.504,7.39
		c0.141,0.367,0.288,0.734,0.434,1.099c0.441,1.099,0.901,2.188,1.383,3.266c0.253,0.571,0.508,1.141,0.773,1.706
		c0.268,0.569,0.541,1.134,0.82,1.696c0.419,0.85,0.853,1.694,1.298,2.531c0.106,0.199,0.202,0.406,0.31,0.604H145.72
		L125.609,249.258z M418.447,383.039c-16.642,0-31.83-6.342-43.276-16.734c-0.055-0.049-0.108-0.102-0.162-0.151
		c-2.773-2.536-5.316-5.316-7.613-8.295c-0.223-0.29-0.454-0.575-0.672-0.869c-0.329-0.443-0.642-0.898-0.961-1.349
		c-0.329-0.467-0.661-0.933-0.975-1.408c-0.237-0.357-0.463-0.721-0.694-1.08c-0.38-0.598-0.758-1.198-1.118-1.809
		c-0.164-0.278-0.323-0.559-0.483-0.84c-0.409-0.718-0.809-1.44-1.189-2.172c-0.106-0.202-0.21-0.408-0.313-0.611
		c-0.421-0.828-0.825-1.665-1.21-2.511c-0.06-0.13-0.118-0.259-0.176-0.389c-0.416-0.933-0.812-1.873-1.183-2.825
		c-0.025-0.063-0.049-0.125-0.074-0.188c-0.394-1.02-0.766-2.052-1.109-3.093c-0.003-0.007-0.006-0.016-0.009-0.025
		c-1.393-4.233-2.346-8.619-2.837-13.09c-0.006-0.06-0.016-0.118-0.023-0.178c-0.108-1.004-0.183-2.016-0.243-3.028
		c-0.007-0.131-0.023-0.259-0.029-0.39c-0.06-1.131-0.092-2.268-0.092-3.406c0-35.534,28.908-64.442,64.442-64.442
		c1.007,0,2.007,0.031,3.003,0.076c0.69,0.033,1.384,0.087,2.079,0.143c0.263,0.02,0.528,0.036,0.79,0.06
		c0.868,0.082,1.738,0.18,2.608,0.295c0.076,0.01,0.151,0.019,0.227,0.029c0.901,0.124,1.803,0.266,2.704,0.428
		c30.106,5.406,53.029,31.771,53.029,63.41C482.888,354.132,453.98,383.039,418.447,383.039z"/>
	<path style="fill:#B3404A;" d="M442.347,333.154h-47.8c-8.039,0-14.556-6.517-14.556-14.556s6.517-14.556,14.556-14.556h47.8
		c8.039,0,14.556,6.517,14.556,14.556S450.386,333.154,442.347,333.154z"/>
</g>
<g>
</g>
<g>
</g>
<g>
</g>
<g>
</g>
<g>
</g>
<g>
</g>
<g>
</g>
<g>
</g>
<g>
</g>
<g>
</g>
<g>
</g>
<g>
</g>
<g>
</g>
<g>
</g>
<g>
</g>
</svg>
